<svg xmlns="http://www.w3.org/2000/svg" xmlns:xlink="http://www.w3.org/1999/xlink" width="150" zoomAndPan="magnify" viewBox="0 0 224.87999 225" height="150" preserveAspectRatio="xMidYMid meet" version="1.0"><defs><clipPath id="d1c899083d"><path d="M 0 0.0585938 L 224.761719 0.0585938 L 224.761719 224.9375 L 0 224.9375 Z M 0 0.0585938 " clip-rule="nonzero"/></clipPath><clipPath id="d792186fb9"><path d="M 36 0.0585938 L 188.757812 0.0585938 L 188.757812 224.9375 L 36 224.9375 Z M 36 0.0585938 " clip-rule="nonzero"/></clipPath></defs><g clip-path="url(#d1c899083d)"><path fill="#ffffff" d="M 0 0.0585938 L 224.878906 0.0585938 L 224.878906 224.941406 L 0 224.941406 Z M 0 0.0585938 " fill-opacity="1" fill-rule="nonzero"/><path fill="#ffffff" d="M 0 0.0585938 L 224.878906 0.0585938 L 224.878906 224.941406 L 0 224.941406 Z M 0 0.0585938 " fill-opacity="1" fill-rule="nonzero"/></g><g clip-path="url(#d792186fb9)"><path fill="#a99382" d="M 69.65625 222.03125 L 74.039062 185.859375 C 74.160156 184.84375 73.46875 183.910156 72.457031 183.710938 C 71.402344 183.507812 70.386719 184.234375 70.183594 185.289062 L 64.914062 214.164062 C 57.9375 196.078125 54.734375 176.53125 55.75 157.230469 C 55.953125 154.59375 56.074219 151.917969 56.4375 149.320312 L 56.925781 145.386719 C 57.128906 144.050781 57.328125 142.75 57.53125 141.453125 C 58.382812 136.222656 59.4375 130.992188 60.859375 125.921875 C 63.617188 115.703125 67.75 105.890625 73.226562 96.886719 C 78.699219 87.886719 85.59375 79.816406 93.582031 72.960938 C 95.570312 71.257812 97.636719 69.597656 99.746094 68.015625 C 101.855469 66.433594 104.003906 64.933594 106.234375 63.511719 C 108.425781 62.09375 110.695312 60.753906 113.007812 59.457031 C 115.320312 58.199219 117.628906 56.984375 120.023438 55.890625 C 121.160156 55.363281 122.253906 54.875 123.429688 54.429688 C 123.550781 56.902344 123.875 59.378906 124.363281 61.808594 C 125.171875 65.785156 126.429688 69.636719 128.132812 73.285156 C 129.835938 76.9375 131.945312 80.421875 134.582031 83.585938 C 137.175781 86.707031 140.300781 89.589844 143.988281 91.695312 C 144.433594 91.941406 144.921875 92.183594 145.410156 92.425781 C 145.894531 92.671875 146.382812 92.871094 146.867188 93.117188 C 147.355469 93.320312 147.882812 93.523438 148.367188 93.683594 C 148.613281 93.765625 148.855469 93.847656 149.097656 93.925781 L 149.828125 94.171875 C 151.816406 94.777344 153.882812 95.183594 155.992188 95.386719 C 160.167969 95.792969 164.550781 95.304688 168.5625 93.683594 L 170.023438 93.035156 C 170.265625 92.914062 170.511719 92.792969 170.714844 92.671875 C 170.957031 92.546875 171.160156 92.425781 171.402344 92.304688 C 172.335938 91.777344 173.226562 91.210938 174.121094 90.5625 C 174.972656 89.914062 175.824219 89.183594 176.59375 88.414062 C 177.363281 87.640625 178.09375 86.789062 178.742188 85.898438 C 179.027344 85.453125 179.390625 85.003906 179.632812 84.480469 L 180.039062 83.75 L 180.40625 83.019531 L 180.609375 82.652344 L 180.769531 82.25 L 181.09375 81.476562 C 181.175781 81.234375 181.296875 80.949219 181.378906 80.707031 L 181.621094 79.894531 C 182.230469 77.746094 182.433594 75.515625 182.269531 73.367188 C 182.027344 69.027344 180.527344 65.015625 178.660156 61.484375 L 178.660156 61.527344 C 178.621094 61.40625 178.539062 61.28125 178.582031 61.324219 L 178.5 61.203125 L 178.335938 60.957031 L 178.054688 60.472656 C 177.851562 60.148438 177.648438 59.824219 177.445312 59.539062 C 177.242188 59.214844 177.039062 58.929688 176.835938 58.648438 C 176.632812 58.363281 176.429688 58.039062 176.1875 57.753906 C 175.742188 57.1875 175.296875 56.621094 174.808594 56.050781 C 174.320312 55.523438 173.875 54.957031 173.347656 54.46875 C 171.363281 52.402344 169.089844 50.535156 166.65625 48.996094 C 166.050781 48.628906 165.402344 48.265625 164.792969 47.902344 L 162.847656 46.886719 L 160.820312 46.035156 L 158.75 45.347656 C 155.953125 44.496094 153.074219 44.089844 150.234375 43.96875 C 147.394531 43.84375 144.558594 44.007812 141.757812 44.371094 C 138.960938 44.738281 136.242188 45.304688 133.566406 46.035156 C 132.714844 46.277344 131.824219 46.523438 130.972656 46.765625 L 131.054688 46.441406 C 131.132812 46.035156 131.214844 45.589844 131.335938 45.183594 C 131.582031 44.371094 131.785156 43.519531 132.066406 42.710938 C 132.230469 42.304688 132.351562 41.898438 132.472656 41.492188 L 132.960938 40.316406 C 133.121094 39.914062 133.324219 39.546875 133.488281 39.140625 C 133.6875 38.734375 133.851562 38.371094 134.054688 37.964844 C 134.460938 37.195312 134.824219 36.425781 135.3125 35.695312 C 136.164062 34.195312 137.175781 32.773438 138.230469 31.394531 C 140.378906 28.640625 142.855469 26.125 145.53125 23.855469 C 150.84375 19.191406 157.167969 15.660156 163.859375 13.148438 C 170.550781 10.632812 177.648438 9.09375 184.824219 8.484375 L 184.867188 8.484375 C 184.867188 8.484375 184.90625 8.484375 184.90625 8.484375 C 187.136719 8.242188 188.757812 6.253906 188.554688 4.0625 C 188.3125 1.792969 186.324219 0.171875 184.09375 0.414062 C 176.226562 1.183594 168.441406 2.96875 161.0625 5.847656 C 153.679688 8.769531 146.664062 12.78125 140.582031 18.015625 C 137.542969 20.648438 134.742188 23.609375 132.308594 26.8125 C 131.132812 28.476562 129.957031 30.140625 128.945312 31.921875 C 128.417969 32.816406 127.972656 33.707031 127.484375 34.640625 C 127.242188 35.085938 127.039062 35.574219 126.835938 36.019531 C 126.632812 36.503906 126.390625 36.953125 126.226562 37.4375 L 125.660156 38.898438 C 125.496094 39.386719 125.335938 39.871094 125.171875 40.359375 C 124.847656 41.332031 124.605469 42.34375 124.320312 43.359375 C 124.199219 43.84375 124.117188 44.371094 123.996094 44.859375 L 123.835938 45.628906 L 123.714844 46.402344 L 123.46875 47.941406 L 123.347656 49.28125 C 121.523438 50.007812 119.699219 50.820312 117.953125 51.671875 C 115.480469 52.847656 113.089844 54.144531 110.695312 55.484375 C 108.34375 56.863281 105.992188 58.28125 103.722656 59.78125 C 101.449219 61.28125 99.21875 62.863281 97.070312 64.566406 C 94.921875 66.230469 92.8125 67.972656 90.746094 69.757812 C 82.554688 76.976562 75.496094 85.492188 69.941406 94.902344 C 64.386719 104.308594 60.332031 114.488281 57.613281 124.988281 C 56.234375 130.222656 55.222656 135.574219 54.449219 140.925781 C 54.246094 142.265625 54.085938 143.601562 53.921875 144.941406 L 53.519531 148.996094 C 53.195312 151.671875 53.113281 154.390625 52.949219 157.105469 C 52.179688 176.855469 55.75 196.6875 63.089844 214.972656 L 39.527344 196.359375 C 38.714844 195.710938 37.539062 195.835938 36.851562 196.605469 C 36.121094 197.414062 36.203125 198.632812 37.011719 199.363281 L 64.589844 223.9375 C 65.035156 224.34375 65.601562 224.585938 66.210938 224.667969 C 67.953125 224.828125 69.453125 223.691406 69.65625 222.03125 Z M 149.828125 48.914062 C 152.34375 49.078125 154.777344 49.441406 157.128906 50.171875 L 158.832031 50.78125 L 160.492188 51.511719 L 162.117188 52.363281 L 163.699219 53.335938 C 165.765625 54.671875 167.632812 56.296875 169.335938 58.121094 C 169.78125 58.566406 170.144531 59.050781 170.589844 59.5 C 170.996094 59.984375 171.363281 60.472656 171.726562 60.957031 C 171.929688 61.203125 172.09375 61.445312 172.253906 61.6875 C 172.417969 61.933594 172.617188 62.175781 172.78125 62.457031 C 172.945312 62.703125 173.105469 62.984375 173.269531 63.230469 L 173.46875 63.59375 L 173.550781 63.757812 L 173.59375 63.835938 C 173.550781 63.757812 173.429688 63.472656 173.390625 63.351562 C 173.308594 63.109375 173.308594 62.863281 173.308594 62.660156 L 173.59375 63.917969 C 173.996094 64.730469 174.363281 65.5 174.6875 66.3125 C 174.847656 66.71875 175.011719 67.121094 175.171875 67.527344 C 175.296875 67.933594 175.457031 68.339844 175.578125 68.746094 C 176.066406 70.367188 176.390625 71.988281 176.429688 73.609375 C 176.59375 76.8125 175.699219 79.894531 173.875 82.410156 C 172.050781 84.925781 169.253906 86.832031 166.171875 88.046875 C 163.171875 89.222656 159.804688 89.546875 156.480469 89.183594 C 154.816406 88.980469 153.152344 88.65625 151.53125 88.128906 L 150.921875 87.925781 C 150.722656 87.84375 150.519531 87.761719 150.316406 87.722656 C 149.949219 87.5625 149.546875 87.4375 149.179688 87.277344 C 148.816406 87.113281 148.449219 86.953125 148.085938 86.75 C 147.71875 86.546875 147.355469 86.34375 146.988281 86.140625 C 144.109375 84.480469 141.597656 82.085938 139.449219 79.410156 C 137.257812 76.734375 135.472656 73.652344 134.054688 70.449219 C 132.59375 67.242188 131.582031 63.835938 130.890625 60.390625 C 130.363281 57.550781 130.121094 54.632812 130.203125 51.792969 C 131.660156 51.347656 133.121094 50.902344 134.621094 50.535156 C 137.136719 49.929688 139.648438 49.402344 142.203125 49.117188 C 144.800781 48.875 147.316406 48.753906 149.828125 48.914062 Z M 173.59375 63.835938 C 173.59375 63.878906 173.59375 63.878906 173.59375 63.835938 Z M 173.59375 63.835938 " fill-opacity="1" fill-rule="nonzero"/></g></svg>